<svg width="48" height="48" viewBox="0 0 48 48" fill="none" xmlns="http://www.w3.org/2000/svg">
<g clip-path="url(#clip0_3607_206297)">
<path d="M24.0088 4.00803C29.7499 4.00803 35.491 4.01805 41.2317 4.00001C42.5081 3.99601 43.7559 4.85889 43.989 6.34865C44.007 6.4629 43.997 6.58166 43.997 6.69842C43.997 18.2291 43.995 29.7594 44 41.2901C44.0005 42.7202 42.8724 43.998 41.2622 43.998C29.7554 44.001 18.2481 43.9995 6.74127 43.9995C5.33606 43.9995 4.20798 42.9973 4.02907 41.6038C4.00852 41.4459 4 41.2896 4 41.1317C4.0005 29.6847 4.0005 18.2377 4.0005 6.79062C4.0005 5.36199 4.92762 4.25708 6.33634 4.01805C6.48268 3.993 6.63603 4.00803 6.78637 4.00803C12.5275 4.00803 18.2681 4.00803 24.0093 4.00803H24.0088ZM10.4843 18.8786H10.4858C10.4858 20.0967 10.4913 21.3144 10.4803 22.5326C10.4783 22.746 10.5395 22.7911 10.7434 22.7886C11.6695 22.7771 12.5957 22.7751 13.5218 22.7896C13.7478 22.7931 13.7939 22.729 13.7929 22.5125C13.7844 20.2601 13.7879 18.0077 13.7879 15.7552C13.7879 15.655 13.7864 15.5548 13.7949 15.4551C13.8295 15.0532 14.1222 14.7145 14.512 14.6197C15.163 14.4619 15.7183 14.9164 15.7188 15.6154C15.7208 17.918 15.7223 20.2205 15.7148 22.523C15.7143 22.7255 15.7574 22.7916 15.9709 22.7886C16.897 22.7766 17.8231 22.7761 18.7492 22.7886C18.9712 22.7916 19.0414 22.742 19.0404 22.5065C19.0309 20.2456 19.0344 17.9851 19.0354 15.7242C19.0354 15.6159 19.0354 15.5067 19.0514 15.4C19.1291 14.8693 19.6338 14.5105 20.1625 14.6062C20.6666 14.6974 20.9693 15.0732 20.9698 15.6224C20.9713 17.925 20.9733 20.2275 20.9653 22.5301C20.9648 22.741 21.0229 22.7911 21.2279 22.7886C22.154 22.7776 23.0801 22.7756 24.0063 22.7896C24.2303 22.7931 24.2789 22.733 24.2779 22.515C24.2694 20.204 24.2864 17.8934 24.2679 15.5824C24.2543 13.8957 23.4891 12.6053 22.0152 11.8066C20.5198 10.9958 19.0164 11.0995 17.5806 12.016C17.4428 12.1042 17.3606 12.1188 17.2127 12.0241C15.7709 11.0975 14.259 10.9968 12.7545 11.8076C11.2701 12.6073 10.5079 13.9017 10.4863 15.5999C10.4723 16.6928 10.4838 17.7857 10.4838 18.8786H10.4843ZM24.2734 32.8687C24.2734 31.7673 24.2859 30.6658 24.2704 29.5649C24.2463 27.8547 23.4725 26.5589 21.9711 25.7666C20.4962 24.9889 19.0128 25.0922 17.5996 25.9881C17.4453 26.0858 17.349 26.0923 17.1887 25.9906C15.7955 25.1082 14.3296 24.9924 12.8603 25.7396C11.3834 26.4907 10.548 27.7414 10.5104 29.4026C10.4558 31.8043 10.4954 34.2081 10.4878 36.6109C10.4873 36.7963 10.5871 36.7827 10.7088 36.7827C11.66 36.7812 12.6117 36.7752 13.5624 36.7872C13.7729 36.7897 13.8034 36.7126 13.8019 36.5287C13.7939 35.6026 13.7979 34.6766 13.7984 33.7506C13.7984 32.357 13.7964 30.964 13.7994 29.5705C13.8004 29.0268 14.1713 28.6209 14.692 28.5763C15.2913 28.5252 15.7404 28.9772 15.7409 29.6416C15.7424 31.9276 15.7439 34.2136 15.7373 36.5001C15.7368 36.6975 15.7699 36.7712 15.9904 36.7682C16.9246 36.7542 17.8597 36.7557 18.7938 36.7672C19.0073 36.7697 19.0519 36.7031 19.0514 36.5001C19.0434 34.7398 19.0464 32.9794 19.0469 31.2186C19.0469 30.6348 19.0389 30.05 19.0579 29.4667C19.0735 28.9842 19.4579 28.6144 19.9435 28.5748C20.4075 28.5372 20.8515 28.8464 20.9533 29.2979C20.9894 29.4587 20.9924 29.6291 20.9924 29.7954C20.9949 32.0399 20.9964 34.2843 20.9899 36.5287C20.9894 36.7121 21.031 36.7687 21.2229 36.7667C22.1575 36.7562 23.0922 36.7567 24.0263 36.7667C24.2167 36.7687 24.2794 36.7271 24.2779 36.5232C24.2674 35.305 24.2729 34.0868 24.2729 32.8687H24.2734ZM37.4375 17.0215C37.4365 13.8471 34.8641 11.2764 31.6908 11.2769C28.5181 11.2774 25.9407 13.8471 25.9332 17.0165C25.9252 20.1985 28.5021 22.7816 31.6863 22.7836C34.8741 22.7856 37.439 20.2165 37.4375 17.022V17.0215ZM31.6808 25.2715C28.5021 25.272 25.9372 27.8332 25.9327 31.0111C25.9282 34.1835 28.5 36.7607 31.6713 36.7622C34.8741 36.7637 37.437 34.2116 37.4375 31.0206C37.4375 27.8226 34.8826 25.271 31.6808 25.2715Z" fill="#B40166"/>
<path d="M10.4849 18.8786C10.4849 17.7857 10.4734 16.6928 10.4874 15.5999C10.5095 13.9012 11.2712 12.6074 12.7556 11.8076C14.2601 10.9968 15.7725 11.0981 17.2138 12.0241C17.3617 12.1188 17.4438 12.1043 17.5817 12.0161C19.0179 11.0996 20.5209 10.9958 22.0163 11.8066C23.4902 12.6059 24.2554 13.8957 24.269 15.5824C24.287 17.8929 24.2705 20.204 24.279 22.515C24.28 22.733 24.2314 22.7931 24.0074 22.7896C23.0812 22.7751 22.1551 22.7771 21.229 22.7886C21.024 22.7911 20.9659 22.741 20.9664 22.5301C20.9744 20.2275 20.9724 17.925 20.9709 15.6225C20.9709 15.0733 20.6682 14.6969 20.1636 14.6062C19.6349 14.511 19.1302 14.8693 19.0525 15.4C19.037 15.5067 19.0365 15.6159 19.0365 15.7242C19.0355 17.9851 19.032 20.2456 19.0415 22.5065C19.0425 22.742 18.9723 22.7916 18.7503 22.7886C17.8242 22.7761 16.8981 22.7766 15.972 22.7886C15.7585 22.7916 15.7149 22.7255 15.7159 22.5231C15.7234 20.2205 15.7219 17.918 15.7199 15.6154C15.7194 14.9164 15.1641 14.4624 14.5131 14.6198C14.1232 14.7145 13.8306 15.0527 13.796 15.4551C13.7875 15.5548 13.789 15.655 13.789 15.7553C13.789 18.0077 13.7855 20.2601 13.794 22.5125C13.795 22.7285 13.7489 22.7931 13.5229 22.7896C12.5968 22.7751 11.6706 22.7771 10.7445 22.7886C10.5405 22.7911 10.4794 22.746 10.4814 22.5326C10.4924 21.3149 10.4869 20.0968 10.4869 18.8786H10.4854H10.4849Z" fill="#FEFDFD"/>
<path d="M24.2726 32.8685C24.2726 34.0866 24.2675 35.3048 24.2776 36.523C24.2791 36.7269 24.2164 36.768 24.026 36.7665C23.0913 36.757 22.1567 36.7565 21.2226 36.7665C21.0311 36.7685 20.989 36.7119 20.9895 36.5285C20.9961 34.2841 20.9946 32.0397 20.992 29.7952C20.992 29.6294 20.989 29.4585 20.953 29.2977C20.8512 28.8462 20.4072 28.537 19.9431 28.5746C19.4575 28.6142 19.0732 28.984 19.0576 29.4665C19.0391 30.0498 19.0471 30.6341 19.0466 31.2184C19.0456 32.9787 19.0431 34.7391 19.0511 36.4999C19.0521 36.7024 19.007 36.7695 18.7935 36.767C17.8589 36.7555 16.9242 36.754 15.9901 36.768C15.7696 36.7715 15.7365 36.6978 15.737 36.4999C15.744 34.2139 15.7425 31.9279 15.7405 29.6414C15.7405 28.9775 15.291 28.525 14.6916 28.5761C14.1709 28.6207 13.8006 29.0266 13.7991 29.5703C13.7961 30.9638 13.7981 32.3568 13.7981 33.7504C13.7981 34.6764 13.7936 35.6024 13.8016 36.5285C13.8031 36.7119 13.7725 36.7895 13.562 36.787C12.6109 36.775 11.6597 36.781 10.7085 36.7825C10.5862 36.7825 10.487 36.7961 10.4875 36.6107C10.4945 34.2079 10.4554 31.8041 10.5101 29.4024C10.5477 27.7412 11.3831 26.4905 12.8599 25.7394C14.3293 24.9922 15.7952 25.108 17.1883 25.9904C17.3492 26.0921 17.4449 26.0856 17.5993 25.9879C19.0125 25.092 20.4959 24.9887 21.9708 25.7664C23.4717 26.5582 24.246 27.8545 24.27 29.5647C24.2856 30.6656 24.2731 31.7676 24.2731 32.8685H24.2726Z" fill="#FEFDFD"/>
<path d="M37.4379 17.0219C37.4389 20.2164 34.8746 22.7855 31.6868 22.7835C28.5025 22.7815 25.9256 20.1989 25.9336 17.0164C25.9416 13.847 28.519 11.2779 31.6913 11.2769C34.865 11.2764 37.4369 13.847 37.4379 17.0214V17.0219ZM34.1344 17.0475C34.1429 15.7065 33.0579 14.6021 31.7168 14.5866C30.3688 14.5706 29.2542 15.664 29.2402 17.0169C29.2261 18.3463 30.3297 19.4678 31.6617 19.4768C33.0193 19.4863 34.1259 18.3989 34.1349 17.0475H34.1344Z" fill="#FEFDFD"/>
<path d="M31.6817 25.2715C34.8836 25.271 37.4384 27.8226 37.4384 31.0206C37.4384 34.212 34.8756 36.7641 31.6722 36.7621C28.5005 36.7606 25.9291 34.183 25.9336 31.011C25.9381 27.8331 28.503 25.272 31.6817 25.2715ZM31.6742 28.5702C30.3347 28.5807 29.2367 29.6851 29.2397 31.0191C29.2427 32.3855 30.3612 33.4689 31.7554 33.4564C33.0684 33.4444 34.1449 32.3269 34.1339 30.9875C34.1228 29.6506 33.0133 28.5602 31.6742 28.5702Z" fill="#FEFDFD"/>
<path d="M34.1331 17.0475C34.1246 18.3989 33.0176 19.4863 31.66 19.4768C30.3274 19.4673 29.2239 18.3463 29.2384 17.0169C29.253 15.664 30.367 14.5706 31.7151 14.5866C33.0567 14.6026 34.1411 15.7065 34.1326 17.0475H34.1331Z" fill="#B40166"/>
<path d="M31.6729 28.5704C33.0119 28.5599 34.1215 29.6508 34.1325 30.9877C34.1435 32.3271 33.067 33.4446 31.754 33.4566C30.3599 33.4696 29.2418 32.3862 29.2383 31.0192C29.2353 29.6853 30.3333 28.5809 31.6729 28.5704Z" fill="#B40166"/>
</g>
<defs>
<clipPath id="clip0_3607_206297">
<rect width="40" height="40" fill="white" transform="translate(4 4)"/>
</clipPath>
</defs>
</svg>
