<svg width="48" height="48" viewBox="0 0 48 48" fill="none" xmlns="http://www.w3.org/2000/svg">
<path d="M0 13.1146C0 10.2173 2.52827 7.86865 5.64706 7.86865H42.3529C45.4717 7.86865 48 10.2173 48 13.1146V34.0982C48 36.9954 45.4717 39.3441 42.3529 39.3441H5.64706C2.52827 39.3441 0 36.9954 0 34.0982V13.1146Z" fill="white"/>
<path fill-rule="evenodd" clip-rule="evenodd" d="M42.3529 9.18013H5.64706C3.30797 9.18013 1.41176 10.9416 1.41176 13.1146V34.0982C1.41176 36.2711 3.30797 38.0326 5.64706 38.0326H42.3529C44.692 38.0326 46.5882 36.2711 46.5882 34.0982V13.1146C46.5882 10.9416 44.692 9.18013 42.3529 9.18013ZM5.64706 7.86865C2.52827 7.86865 0 10.2173 0 13.1146V34.0982C0 36.9954 2.52827 39.3441 5.64706 39.3441H42.3529C45.4717 39.3441 48 36.9954 48 34.0982V13.1146C48 10.2173 45.4717 7.86865 42.3529 7.86865H5.64706Z" fill="#F2F4F7"/>
<path fill-rule="evenodd" clip-rule="evenodd" d="M15.4589 28.5352H12.5511L10.3705 20.5799C10.267 20.214 10.0473 19.8905 9.72402 19.738C8.91731 19.3548 8.02836 19.0499 7.05859 18.8961V18.5898H11.7429C12.3895 18.5898 12.8743 19.0499 12.9551 19.5842L14.0865 25.3226L16.993 18.5898H19.82L15.4589 28.5352ZM21.4369 28.5352H18.6907L20.9521 18.5898H23.6983L21.4369 28.5352ZM27.2512 21.3449C27.332 20.8092 27.8169 20.503 28.3826 20.503C29.2715 20.4261 30.2399 20.5799 31.048 20.9617L31.5329 18.8204C30.7248 18.5142 29.8358 18.3604 29.0291 18.3604C26.3637 18.3604 24.4241 19.7379 24.4241 21.6498C24.4241 23.1043 25.798 23.868 26.7677 24.3281C27.8169 24.7869 28.221 25.0931 28.1401 25.5519C28.1401 26.24 27.332 26.5463 26.5253 26.5463C25.5555 26.5463 24.5858 26.3169 23.6982 25.9337L23.2133 28.0764C24.1831 28.4582 25.2323 28.612 26.202 28.612C29.1907 28.6876 31.048 27.3113 31.048 25.2456C31.048 22.6442 27.2512 22.4918 27.2512 21.3449ZM40.6596 28.5352L38.479 18.5898H36.1369C35.652 18.5898 35.1671 18.8961 35.0055 19.3548L30.9676 28.5352H33.7947L34.359 27.082H37.8325L38.1558 28.5352H40.6596ZM36.5403 21.2679L37.347 25.0162H35.0856L36.5403 21.2679Z" fill="#172B85"/>
</svg>
