<svg width="48" height="48" viewBox="0 0 48 48" fill="none" xmlns="http://www.w3.org/2000/svg">
<rect x="0.5" y="7.55859" width="47" height="32.8824" rx="3.5" fill="white"/>
<path fill-rule="evenodd" clip-rule="evenodd" d="M24.2508 30.8177C22.5792 32.2267 20.4109 33.0773 18.0415 33.0773C12.7546 33.0773 8.46875 28.8425 8.46875 23.6185C8.46875 18.3945 12.7546 14.1597 18.0415 14.1597C20.4109 14.1597 22.5792 15.0103 24.2508 16.4193C25.9224 15.0103 28.0908 14.1597 30.4602 14.1597C35.7471 14.1597 40.0329 18.3945 40.0329 23.6185C40.0329 28.8425 35.7471 33.0773 30.4602 33.0773C28.0908 33.0773 25.9224 32.2267 24.2508 30.8177Z" fill="#ED0006"/>
<path fill-rule="evenodd" clip-rule="evenodd" d="M24.25 30.8177C26.3083 29.0828 27.6134 26.5013 27.6134 23.6185C27.6134 20.7357 26.3083 18.1542 24.25 16.4193C25.9216 15.0103 28.0899 14.1597 30.4593 14.1597C35.7462 14.1597 40.0321 18.3945 40.0321 23.6185C40.0321 28.8425 35.7462 33.0773 30.4593 33.0773C28.0899 33.0773 25.9216 32.2267 24.25 30.8177Z" fill="#F9A000"/>
<path fill-rule="evenodd" clip-rule="evenodd" d="M24.2501 30.8178C26.3083 29.0829 27.6134 26.5014 27.6134 23.6186C27.6134 20.7359 26.3083 18.1544 24.2501 16.4194C22.1918 18.1544 20.8867 20.7359 20.8867 23.6186C20.8867 26.5014 22.1918 29.0829 24.2501 30.8178Z" fill="#FF5E00"/>
<rect x="0.5" y="7.55859" width="47" height="32.8824" rx="3.5" stroke="#F2F4F7"/>
</svg>
