<svg width="48" height="48" viewBox="0 0 48 48" fill="none" xmlns="http://www.w3.org/2000/svg">
<path d="M12.6774 29.6887C12.9118 27.7479 13.7078 26.6612 15.2079 25.5473C17.3541 24.0386 20.0352 24.892 20.0352 24.892V19.8292C20.687 19.8126 21.339 19.8512 21.9837 19.9447V26.46C21.9837 26.46 19.3035 25.6065 17.1572 27.116C15.658 28.2292 14.8603 29.3166 14.6267 31.2575C14.6194 32.3114 14.8172 33.689 15.728 34.8802C15.5028 34.7647 15.2732 34.6332 15.0394 34.4855C13.0331 33.1383 12.6676 31.1171 12.6774 29.6887ZM33.0537 10.4682C31.5773 8.85034 31.0189 7.21684 30.8171 6.06934H32.6744C32.6744 6.06934 32.3041 9.07812 35.003 12.037L35.0405 12.0768C34.3131 11.6192 33.646 11.0791 33.0537 10.4682ZM42.001 15.0551V21.4393C42.001 21.4393 39.6309 21.3465 37.877 20.9003C35.4279 20.2762 33.8538 19.3191 33.8538 19.3191C33.8538 19.3191 32.7664 18.6365 32.6785 18.5889V31.7723C32.6785 32.5064 32.4775 34.3396 31.8646 35.8685C31.0645 37.8687 29.8298 39.1816 29.6027 39.4499C29.6027 39.4499 28.1011 41.2246 25.4518 42.4197C23.0637 43.4978 20.9671 43.4705 20.3404 43.4978C20.3404 43.4978 16.716 43.6413 13.4547 41.5218C12.7495 41.0547 12.0911 40.5256 11.4883 39.9414L11.5046 39.9531C14.7667 42.0726 18.3903 41.929 18.3903 41.929C19.0178 41.9017 21.1144 41.929 23.5016 40.8509C26.1485 39.6559 27.6526 37.8812 27.6526 37.8812C27.8772 37.6128 29.1176 36.2999 29.9144 34.299C30.5257 32.7708 30.7284 30.9369 30.7284 30.2028V17.0209C30.8163 17.0693 31.9028 17.7519 31.9028 17.7519C31.9028 17.7519 33.4778 18.7098 35.9268 19.3331C37.6816 19.7793 40.0509 19.8721 40.0509 19.8721V14.8695C40.8616 15.0512 41.5526 15.1004 42.001 15.0551Z" fill="#EE1D52"/>
<path d="M40.0513 14.8695V19.8706C40.0513 19.8706 37.682 19.7778 35.9272 19.3315C33.4781 18.7075 31.9032 17.7503 31.9032 17.7503C31.9032 17.7503 30.8166 17.0677 30.7287 17.0194V30.2044C30.7287 30.9384 30.5277 32.7724 29.9148 34.3006C29.1147 36.3015 27.88 37.6144 27.653 37.8827C27.653 37.8827 26.1505 39.6574 23.502 40.8525C21.1148 41.9306 19.0182 41.9033 18.3906 41.9306C18.3906 41.9306 14.7671 42.0741 11.5049 39.9546L11.4887 39.9429C11.1442 39.6094 10.82 39.2573 10.5177 38.8883C9.47666 37.6191 8.83855 36.1182 8.67821 35.6899C8.67793 35.6881 8.67793 35.6863 8.67821 35.6844C8.4202 34.9402 7.87813 33.1531 7.9522 31.4221C8.08324 28.368 9.1576 26.4935 9.44166 26.0239C10.194 24.7433 11.1724 23.5975 12.3335 22.6375C13.3581 21.8092 14.5194 21.1501 15.7698 20.6873C17.1216 20.144 18.5691 19.8527 20.0347 19.8292V24.892C20.0347 24.892 17.3537 24.0417 15.2082 25.5473C13.7082 26.6612 12.9122 27.7479 12.6778 29.6887C12.668 31.1171 13.0335 33.1383 15.0381 34.4862C15.272 34.6345 15.5015 34.766 15.7267 34.881C16.0769 35.3362 16.5032 35.7329 16.9883 36.055C18.9465 37.2945 20.5874 37.3811 22.6856 36.5761C24.0848 36.0378 25.138 34.8248 25.6263 33.4807C25.9332 32.6413 25.9291 31.7965 25.9291 30.9228V6.06934H30.8126C31.0144 7.21684 31.5728 8.85034 33.0492 10.4682C33.6415 11.0791 34.3086 11.6192 35.036 12.0768C35.2508 12.2991 36.3496 13.3982 37.7601 14.073C38.4895 14.4218 39.2582 14.689 40.0513 14.8695Z" fill="black"/>
<path d="M6.73438 34.1353V34.1392L6.85555 34.4676C6.84163 34.4293 6.7966 34.3131 6.73438 34.1353Z" fill="#69C9D0"/>
<path d="M15.7692 20.6875C14.5188 21.1502 13.3575 21.8093 12.3329 22.6377C11.1714 23.5998 10.1932 24.748 9.44187 26.031C9.15781 26.4991 8.08345 28.3752 7.95241 31.4292C7.87834 33.1602 8.42041 34.9474 8.67842 35.6916C8.67814 35.6934 8.67814 35.6953 8.67842 35.6971C8.8412 36.1214 9.47687 37.6223 10.5179 38.8954C10.8202 39.2644 11.1444 39.6166 11.4889 39.9501C10.3854 39.2186 9.40119 38.3342 8.56854 37.3259C7.5365 36.0676 6.90002 34.5823 6.73398 34.1439C6.73379 34.1408 6.73379 34.1377 6.73398 34.1346V34.1291C6.47516 33.3857 5.93147 31.5977 6.00716 29.8644C6.1382 26.8103 7.21256 24.9358 7.49662 24.4662C8.24776 23.183 9.226 22.0348 10.3876 21.0728C11.412 20.2442 12.5734 19.5851 13.824 19.1226C14.604 18.8124 15.4167 18.5836 16.2478 18.44C17.5004 18.2305 18.7797 18.2123 20.0382 18.3862V19.8294C18.5712 19.8524 17.1223 20.1436 15.7692 20.6875Z" fill="#69C9D0"/>
<path d="M30.8157 6.06953H25.9322V30.9238C25.9322 31.7975 25.9322 32.64 25.6294 33.4817C25.1362 34.825 24.0871 36.038 22.6888 36.5763C20.5897 37.3844 18.9488 37.2947 16.9914 36.0552C16.5055 35.7345 16.0781 35.3392 15.7266 34.8851C17.3943 35.7377 18.887 35.7229 20.7362 35.0114C22.1337 34.4732 23.1844 33.2601 23.676 31.916C23.9837 31.0767 23.9796 30.2318 23.9796 29.3589V4.5H30.7229C30.7229 4.5 30.6472 5.11783 30.8157 6.06953ZM40.0503 13.4866V14.8697C39.2587 14.6889 38.4913 14.4217 37.7632 14.0732C36.3527 13.3984 35.254 12.2993 35.0391 12.077C35.2884 12.2339 35.5471 12.3766 35.8139 12.5044C37.5288 13.3251 39.2177 13.57 40.0503 13.4866Z" fill="#69C9D0"/>
</svg>
