<svg width="48" height="48" viewBox="0 0 48 48" fill="none" xmlns="http://www.w3.org/2000/svg">
<path d="M3.36676 14.9117C3.55956 11.9435 5.94592 9.61735 8.9167 9.47017C13.2186 9.25704 19.3672 9 24 9C28.6328 9 34.7814 9.25704 39.0833 9.47017C42.0541 9.61735 44.4404 11.9435 44.6332 14.9117C44.818 17.7554 45 21.2545 45 24C45 26.7455 44.818 30.2446 44.6332 33.0883C44.4404 36.0565 42.0541 38.3827 39.0833 38.5298C34.7814 38.743 28.6328 39 24 39C19.3672 39 13.2186 38.743 8.9167 38.5298C5.94592 38.3827 3.55956 36.0565 3.36676 33.0883C3.18205 30.2446 3 26.7455 3 24C3 21.2545 3.18205 17.7554 3.36676 14.9117Z" fill="#FC0D1B"/>
<path d="M19.5 18V30L31.5 24L19.5 18Z" fill="white"/>
</svg>
